<svg xmlns="http://www.w3.org/2000/svg" xmlns:xlink="http://www.w3.org/1999/xlink" width="380" zoomAndPan="magnify" viewBox="0 0 285 79.499998" height="106" preserveAspectRatio="xMidYMid meet" version="1.0"><defs><g/><clipPath id="883039821e"><path d="M 51 30 L 79.894531 30 L 79.894531 38 L 51 38 Z M 51 30 " clip-rule="nonzero"/></clipPath><clipPath id="1dfebd9389"><path d="M 0.890625 0 L 79.894531 0 L 79.894531 65.585938 L 0.890625 65.585938 Z M 0.890625 0 " clip-rule="nonzero"/></clipPath><clipPath id="1140c62b68"><rect x="0" width="194" y="0" height="47"/></clipPath></defs><path fill="#f6bb84" d="M 74.589844 56.636719 L 10.40625 56.636719 C 11.285156 61.265625 15.410156 64.835938 20.269531 64.835938 L 64.726562 64.835938 C 69.589844 64.835938 73.710938 61.265625 74.589844 56.636719 Z M 74.589844 56.636719 " fill-opacity="1" fill-rule="evenodd"/><path fill="#b17f5b" d="M 10.40625 56.636719 L 74.589844 56.636719 C 74.683594 56.03125 74.777344 55.382812 74.777344 54.78125 L 74.777344 50.429688 L 10.222656 50.429688 L 10.222656 54.78125 C 10.222656 55.382812 10.269531 56.03125 10.40625 56.636719 Z M 10.40625 56.636719 " fill-opacity="1" fill-rule="evenodd"/><path fill="#f6bb84" d="M 10.222656 50.429688 L 74.777344 50.429688 L 74.777344 37.179688 L 51.714844 37.179688 C 50.972656 38.152344 49.769531 38.800781 48.472656 38.800781 L 36.523438 38.800781 C 35.183594 38.800781 34.023438 38.152344 33.285156 37.179688 L 10.222656 37.179688 Z M 10.222656 50.429688 " fill-opacity="1" fill-rule="evenodd"/><g clip-path="url(#883039821e)"><path fill="#8b5f49" d="M 51.714844 37.179688 L 75.839844 37.179688 C 77.648438 37.179688 79.128906 35.699219 79.128906 33.890625 C 79.128906 32.085938 77.648438 30.601562 75.839844 30.601562 L 52.546875 30.601562 L 52.546875 34.679688 C 52.546875 35.605469 52.269531 36.484375 51.714844 37.179688 Z M 51.714844 37.179688 " fill-opacity="1" fill-rule="evenodd"/></g><path fill="#727f88" d="M 51.714844 37.179688 C 52.269531 36.484375 52.546875 35.605469 52.546875 34.679688 L 52.546875 30.601562 L 32.402344 30.601562 L 32.402344 34.679688 C 32.402344 35.605469 32.726562 36.484375 33.285156 37.179688 C 34.023438 38.152344 35.183594 38.800781 36.523438 38.800781 L 48.472656 38.800781 C 49.769531 38.800781 50.972656 38.152344 51.714844 37.179688 Z M 51.714844 37.179688 " fill-opacity="1" fill-rule="evenodd"/><path fill="#f6bb84" d="M 52.546875 30.601562 L 62.734375 30.601562 L 62.734375 22.3125 L 51.992188 22.3125 C 51.113281 23.375 50 24.210938 48.703125 24.71875 L 48.703125 30.601562 Z M 52.546875 30.601562 " fill-opacity="1" fill-rule="evenodd"/><path fill="#c4d3e1" d="M 62.734375 19.070312 L 67.507812 19.070312 L 67.507812 30.601562 L 62.734375 30.601562 Z M 62.734375 19.070312 " fill-opacity="1" fill-rule="evenodd"/><path fill="#f6bb84" d="M 67.507812 22.3125 L 67.507812 30.601562 L 75.839844 30.601562 L 75.839844 26.480469 C 75.839844 24.164062 73.988281 22.3125 71.71875 22.3125 Z M 67.507812 22.3125 " fill-opacity="1" fill-rule="evenodd"/><path fill="#b0becb" d="M 62.734375 19.070312 L 67.921875 19.070312 L 70.097656 12.953125 L 67.921875 3.78125 L 62.320312 3.78125 L 60.144531 12.953125 L 62.320312 19.070312 Z M 62.734375 19.070312 " fill-opacity="1" fill-rule="evenodd"/><path fill="#8e9aa5" d="M 51.992188 22.3125 C 53.289062 20.78125 54.078125 18.789062 54.078125 16.660156 C 54.078125 13.417969 52.316406 10.59375 49.722656 9.0625 L 49.722656 14.019531 C 49.722656 16.476562 47.730469 18.464844 45.277344 18.464844 C 42.871094 18.464844 40.878906 16.476562 40.878906 14.019531 L 40.878906 9.0625 C 38.285156 10.59375 36.523438 13.417969 36.523438 16.660156 C 36.523438 18.789062 37.3125 20.78125 38.609375 22.3125 C 39.488281 23.375 40.601562 24.210938 41.851562 24.71875 C 42.917969 25.183594 44.074219 25.414062 45.277344 25.414062 C 46.527344 25.414062 47.6875 25.183594 48.703125 24.71875 C 50 24.210938 51.113281 23.375 51.992188 22.3125 Z M 51.992188 22.3125 " fill-opacity="1" fill-rule="evenodd"/><path fill="#9eabb7" d="M 48.703125 24.71875 C 47.6875 25.183594 46.527344 25.414062 45.277344 25.414062 C 44.074219 25.414062 42.917969 25.183594 41.851562 24.71875 L 41.851562 30.601562 L 48.703125 30.601562 Z M 48.703125 24.71875 " fill-opacity="1" fill-rule="evenodd"/><path fill="#f6bb84" d="M 41.851562 30.601562 L 41.851562 24.71875 C 40.601562 24.210938 39.488281 23.375 38.609375 22.3125 L 28.234375 22.3125 L 30.414062 30.601562 Z M 41.851562 30.601562 " fill-opacity="1" fill-rule="evenodd"/><path fill="#b17f5b" d="M 30.414062 30.601562 L 28.234375 22.3125 L 25.6875 12.863281 L 18.789062 14.714844 L 20.828125 22.3125 L 23.050781 30.601562 Z M 30.414062 30.601562 " fill-opacity="1" fill-rule="evenodd"/><path fill="#f6bb84" d="M 23.050781 30.601562 L 20.828125 22.3125 L 13.277344 22.3125 C 11.007812 22.3125 9.15625 24.164062 9.15625 26.480469 L 9.15625 30.601562 Z M 23.050781 30.601562 " fill-opacity="1" fill-rule="evenodd"/><path fill="#727f88" d="M 18.789062 14.714844 L 25.6875 12.863281 L 26.847656 12.539062 C 27.542969 12.351562 27.957031 11.65625 27.773438 10.960938 L 27.542969 10.222656 L 25.503906 2.578125 L 25.273438 1.746094 C 25.085938 1.050781 24.390625 0.632812 23.699219 0.816406 L 14.480469 3.273438 C 13.789062 3.457031 13.371094 4.199219 13.554688 4.894531 L 13.835938 5.820312 L 15.777344 13.140625 L 16.058594 14.066406 C 16.242188 14.761719 16.9375 15.179688 17.632812 14.992188 Z M 18.789062 14.714844 " fill-opacity="1" fill-rule="evenodd"/><path fill="#5e6970" d="M 25.503906 2.578125 L 27.542969 10.222656 L 42.40625 6.238281 C 36.570312 1.46875 29.347656 1.882812 25.503906 2.578125 Z M 25.503906 2.578125 " fill-opacity="1" fill-rule="evenodd"/><path fill="#5e6970" d="M 15.777344 13.140625 L 13.835938 5.820312 C 10.546875 6.332031 8.554688 5.960938 8.554688 5.960938 L 11.148438 15.6875 C 11.148438 15.6875 12.675781 14.34375 15.777344 13.140625 Z M 15.777344 13.140625 " fill-opacity="1" fill-rule="evenodd"/><path fill="#727f88" d="M 11.148438 15.6875 L 8.554688 5.960938 C 8.414062 5.402344 7.859375 5.078125 7.304688 5.21875 L 2.394531 6.515625 C 1.886719 6.65625 1.515625 7.257812 1.699219 7.765625 L 4.292969 17.492188 C 4.433594 18.050781 4.988281 18.375 5.542969 18.234375 L 10.453125 16.9375 C 11.007812 16.800781 11.332031 16.195312 11.148438 15.6875 Z M 11.148438 15.6875 " fill-opacity="1" fill-rule="evenodd"/><path fill="#8b5f49" d="M 23.050781 30.601562 L 9.15625 30.601562 C 7.351562 30.601562 5.867188 32.085938 5.867188 33.890625 C 5.867188 35.699219 7.351562 37.179688 9.15625 37.179688 L 33.285156 37.179688 C 32.726562 36.484375 32.402344 35.605469 32.402344 34.679688 L 32.402344 30.601562 Z M 23.050781 30.601562 " fill-opacity="1" fill-rule="evenodd"/><g clip-path="url(#1dfebd9389)"><path fill="#000000" d="M 21.566406 22.078125 L 23.652344 29.816406 L 29.441406 29.816406 L 25.132812 13.789062 L 19.714844 15.222656 Z M 63.523438 19.808594 L 63.523438 29.816406 L 66.71875 29.816406 L 66.71875 19.808594 Z M 61.949219 29.816406 L 61.949219 23.097656 L 52.316406 23.097656 C 51.53125 23.980469 50.558594 24.671875 49.492188 25.230469 L 49.492188 29.816406 Z M 61.949219 21.570312 L 61.949219 19.71875 C 61.808594 19.625 61.671875 19.484375 61.578125 19.300781 L 59.402344 13.1875 C 59.355469 13.09375 59.355469 12.90625 59.402344 12.769531 L 61.578125 3.691406 C 61.625 3.320312 61.949219 3.042969 62.320312 3.042969 L 67.921875 3.042969 C 68.246094 3.042969 68.570312 3.273438 68.664062 3.597656 L 70.839844 12.769531 C 70.980469 13.324219 69.035156 18.003906 68.664062 19.253906 C 68.617188 19.4375 68.480469 19.625 68.292969 19.71875 L 68.292969 21.570312 C 71.070312 21.570312 73.339844 21.152344 75.195312 23.007812 C 77 24.859375 76.628906 27.128906 76.628906 29.90625 C 81.214844 30.789062 81.074219 37.96875 75.515625 37.96875 L 75.515625 54.78125 C 75.515625 60.664062 70.703125 65.574219 64.726562 65.574219 L 20.269531 65.574219 C 14.296875 65.574219 9.433594 60.664062 9.433594 54.78125 L 9.433594 37.96875 C 3.925781 37.96875 3.738281 30.789062 8.371094 29.90625 C 8.371094 27.128906 7.953125 24.859375 9.804688 23.007812 C 10.683594 22.125 11.933594 21.570312 13.277344 21.570312 L 19.855469 21.570312 L 18.234375 15.640625 C 17.492188 15.828125 17.03125 15.964844 16.242188 15.546875 C 15.734375 15.222656 15.453125 14.808594 15.269531 14.207031 C 13.554688 14.898438 12.445312 15.640625 11.980469 16.011719 C 11.933594 16.800781 11.425781 17.449219 10.636719 17.679688 L 5.730469 18.976562 C 4.804688 19.253906 3.785156 18.652344 3.554688 17.726562 L 0.960938 8 C 0.683594 7.023438 1.238281 6.050781 2.210938 5.773438 L 7.121094 4.476562 C 7.628906 4.339844 8.046875 4.429688 8.460938 4.664062 C 8.738281 4.800781 8.925781 4.988281 9.109375 5.265625 C 9.710938 5.3125 11.007812 5.402344 12.863281 5.171875 C 12.539062 3.96875 13.1875 2.855469 14.296875 2.53125 L 23.511719 0.078125 C 24.066406 -0.0625 24.578125 0.03125 25.085938 0.308594 C 25.644531 0.632812 25.921875 1.050781 26.058594 1.699219 C 28.003906 1.421875 30.550781 1.234375 33.285156 1.605469 C 36.433594 2.023438 39.8125 3.132812 42.824219 5.589844 C 43.378906 6.050781 43.195312 6.839844 42.59375 6.980469 L 28.515625 10.777344 C 28.792969 11.84375 28.144531 13 27.03125 13.277344 L 26.617188 13.371094 L 28.792969 21.570312 L 37.128906 21.570312 C 35.320312 18.605469 35.273438 14.898438 36.988281 11.890625 C 37.683594 10.683594 39.859375 8.324219 40.878906 8.324219 C 41.296875 8.324219 41.621094 8.648438 41.621094 9.0625 L 41.621094 14.019531 C 41.621094 17.261719 45.554688 18.929688 47.871094 16.613281 C 48.566406 15.964844 48.9375 15.039062 48.9375 14.019531 L 48.9375 9.0625 C 48.9375 8.507812 49.585938 8.042969 50.1875 8.460938 C 53.058594 10.359375 54.816406 13.046875 54.816406 16.660156 C 54.816406 18.421875 54.355469 20.132812 53.472656 21.570312 Z M 68.292969 23.097656 L 68.292969 29.816406 L 75.054688 29.816406 L 75.054688 26.480469 C 75.054688 24.628906 73.574219 23.097656 71.71875 23.097656 Z M 62.875 18.28125 L 67.367188 18.28125 L 69.3125 12.90625 L 67.320312 4.570312 L 62.921875 4.570312 L 60.929688 12.90625 Z M 47.964844 25.832031 C 46.203125 26.339844 44.351562 26.339844 42.636719 25.832031 L 42.636719 29.816406 L 47.964844 29.816406 Z M 41.109375 25.230469 C 40 24.671875 39.074219 23.980469 38.238281 23.097656 L 29.207031 23.097656 L 31.015625 29.816406 C 34.394531 29.816406 37.730469 29.816406 41.109375 29.816406 Z M 40.089844 10.546875 C 36.757812 13.417969 36.339844 18.511719 39.210938 21.800781 C 44.121094 27.546875 53.289062 23.980469 53.289062 16.660156 C 53.289062 14.25 52.269531 12.074219 50.511719 10.546875 C 50.511719 13.417969 50.925781 15.78125 48.984375 17.726562 C 45.695312 21.015625 40.089844 18.605469 40.089844 14.019531 Z M 9.621094 6.839844 L 11.609375 14.390625 C 12.304688 13.925781 13.417969 13.277344 14.851562 12.675781 L 13.277344 6.699219 C 11.703125 6.886719 10.453125 6.886719 9.621094 6.839844 Z M 7.441406 5.960938 L 2.441406 7.394531 L 5.035156 17.308594 L 5.359375 17.492188 L 10.40625 16.058594 C 10.453125 16.011719 10.453125 15.917969 10.40625 15.871094 C 10.175781 14.855469 7.953125 6.144531 7.722656 6.007812 Z M 25.457031 12.121094 C 27.910156 11.425781 27.21875 12.675781 24.761719 2.71875 C 24.671875 2.300781 24.578125 1.792969 24.300781 1.605469 C 24.160156 1.558594 24.023438 1.511719 23.882812 1.558594 L 14.714844 4.015625 C 14.390625 4.105469 14.25 4.386719 14.34375 4.664062 L 16.796875 13.878906 C 16.84375 14.019531 16.9375 14.160156 17.03125 14.207031 C 17.351562 14.390625 18.046875 14.066406 18.605469 13.925781 Z M 26.476562 3.179688 L 28.097656 9.25 L 40.648438 5.914062 C 36.292969 2.996094 31.0625 2.53125 26.476562 3.179688 Z M 20.226562 23.097656 L 13.277344 23.097656 C 11.425781 23.097656 9.898438 24.628906 9.898438 26.480469 L 9.898438 29.816406 L 22.03125 29.816406 Z M 73.988281 37.96875 L 52.085938 37.96875 C 51.207031 38.941406 49.910156 39.542969 48.472656 39.542969 L 36.523438 39.542969 C 35.089844 39.542969 33.792969 38.941406 32.914062 37.96875 L 11.007812 37.96875 L 11.007812 49.640625 L 73.988281 49.640625 Z M 11.007812 51.167969 L 11.054688 55.894531 L 73.941406 55.894531 L 73.988281 51.167969 Z M 11.378906 57.421875 C 12.539062 61.265625 16.148438 64.046875 20.269531 64.046875 L 64.726562 64.046875 C 68.847656 64.046875 72.414062 61.265625 73.617188 57.421875 Z M 75.839844 31.34375 C 68.339844 31.34375 60.835938 31.34375 53.335938 31.34375 C 53.335938 32.917969 53.519531 35.140625 53.011719 36.394531 L 75.839844 36.394531 C 79.175781 36.394531 79.175781 31.34375 75.839844 31.34375 Z M 31.941406 36.394531 C 31.476562 35.140625 31.664062 32.917969 31.664062 31.34375 L 9.15625 31.34375 C 5.824219 31.34375 5.824219 36.394531 9.15625 36.394531 Z M 33.839844 36.671875 C 34.535156 37.457031 35.273438 38.015625 36.523438 38.015625 L 48.472656 38.015625 C 50.324219 38.015625 51.808594 36.484375 51.808594 34.679688 L 51.808594 31.34375 L 33.191406 31.34375 L 33.191406 34.679688 C 33.191406 35.421875 33.421875 36.113281 33.839844 36.671875 Z M 39.859375 35.464844 C 38.839844 35.464844 38.839844 33.9375 39.859375 33.9375 L 45.140625 33.9375 C 46.15625 33.9375 46.15625 35.464844 45.140625 35.464844 Z M 39.859375 35.464844 " fill-opacity="1" fill-rule="nonzero"/></g><g transform="matrix(1, 0, 0, 1, 79, 20)"><g clip-path="url(#1140c62b68)"><g fill="#000000" fill-opacity="1"><g transform="translate(1.00762, 32.615066)"><g><path d="M 9.234375 6.125 L 7.640625 3.71875 C 7.710938 3.625 7.804688 3.503906 7.921875 3.359375 C 8.046875 3.222656 8.296875 2.957031 8.671875 2.5625 C 9.046875 2.175781 9.410156 1.832031 9.765625 1.53125 C 10.117188 1.238281 10.53125 0.972656 11 0.734375 C 11.476562 0.503906 11.914062 0.390625 12.3125 0.390625 L 12.3125 0.25 C 8.875 -0.414062 6.097656 -2.113281 3.984375 -4.84375 C 1.867188 -7.582031 0.8125 -10.835938 0.8125 -14.609375 C 0.8125 -18.859375 2.226562 -22.441406 5.0625 -25.359375 C 7.894531 -28.273438 11.328125 -29.734375 15.359375 -29.734375 C 19.421875 -29.734375 22.851562 -28.273438 25.65625 -25.359375 C 28.46875 -22.441406 29.875 -18.859375 29.875 -14.609375 C 29.875 -11.140625 28.941406 -8.082031 27.078125 -5.4375 C 25.210938 -2.800781 22.757812 -1.023438 19.71875 -0.109375 L 19.71875 0.03125 C 19.851562 0.03125 20.472656 0.140625 21.578125 0.359375 C 22.691406 0.585938 23.582031 0.703125 24.25 0.703125 C 25.144531 0.703125 25.957031 0.539062 26.6875 0.21875 C 27.414062 -0.09375 27.921875 -0.398438 28.203125 -0.703125 L 28.625 -1.203125 L 30.71875 3.296875 C 30.664062 3.410156 30.585938 3.554688 30.484375 3.734375 C 30.378906 3.910156 30.140625 4.222656 29.765625 4.671875 C 29.390625 5.117188 28.96875 5.519531 28.5 5.875 C 28.039062 6.226562 27.425781 6.546875 26.65625 6.828125 C 25.894531 7.109375 25.078125 7.25 24.203125 7.25 C 22.765625 7.25 21.003906 6.789062 18.921875 5.875 C 16.847656 4.957031 15.054688 4.5 13.546875 4.5 C 12.722656 4.5 11.953125 4.632812 11.234375 4.90625 C 10.515625 5.175781 10.003906 5.453125 9.703125 5.734375 Z M 8 -14.609375 C 8 -13.484375 8.128906 -12.429688 8.390625 -11.453125 C 8.648438 -10.472656 9.054688 -9.582031 9.609375 -8.78125 C 10.160156 -7.976562 10.925781 -7.34375 11.90625 -6.875 C 12.882812 -6.414062 14.035156 -6.1875 15.359375 -6.1875 C 17.835938 -6.1875 19.675781 -6.988281 20.875 -8.59375 C 22.082031 -10.195312 22.6875 -12.203125 22.6875 -14.609375 C 22.6875 -16.992188 22.070312 -18.992188 20.84375 -20.609375 C 19.613281 -22.234375 17.785156 -23.046875 15.359375 -23.046875 C 12.953125 -23.046875 11.125 -22.226562 9.875 -20.59375 C 8.625 -18.96875 8 -16.972656 8 -14.609375 Z M 8 -14.609375 "/></g></g></g><g fill="#000000" fill-opacity="1"><g transform="translate(31.688005, 32.615066)"><g><path d="M 3.1875 -18.15625 L 3.1875 -24.921875 L 9.453125 -24.921875 L 9.453125 -18.15625 L 13.265625 -18.15625 L 13.265625 -13.375 L 9.453125 -13.375 L 9.453125 -7.609375 C 9.453125 -5.929688 9.921875 -5.09375 10.859375 -5.09375 C 11.097656 -5.09375 11.347656 -5.140625 11.609375 -5.234375 C 11.867188 -5.328125 12.066406 -5.421875 12.203125 -5.515625 L 12.421875 -5.65625 L 13.984375 -0.609375 C 12.640625 0.148438 11.101562 0.53125 9.375 0.53125 C 8.195312 0.53125 7.179688 0.328125 6.328125 -0.078125 C 5.484375 -0.492188 4.84375 -1.050781 4.40625 -1.75 C 3.96875 -2.445312 3.65625 -3.175781 3.46875 -3.9375 C 3.28125 -4.707031 3.1875 -5.53125 3.1875 -6.40625 L 3.1875 -13.375 L 0.5625 -13.375 L 0.5625 -18.15625 Z M 3.1875 -18.15625 "/></g></g></g><g fill="#000000" fill-opacity="1"><g transform="translate(45.665792, 32.615066)"><g><path d="M 0.28125 -23.359375 L 0.28125 -29.203125 L 20.8125 -29.203125 L 20.8125 -23.359375 L 13.875 -23.359375 L 13.875 0 L 7.21875 0 L 7.21875 -23.359375 Z M 0.28125 -23.359375 "/></g></g></g><g fill="#000000" fill-opacity="1"><g transform="translate(63.995926, 32.615066)"><g><path d="M 3.828125 -2.15625 C 1.816406 -3.945312 0.8125 -6.242188 0.8125 -9.046875 C 0.8125 -11.859375 1.859375 -14.164062 3.953125 -15.96875 C 6.054688 -17.78125 8.65625 -18.6875 11.75 -18.6875 C 14.789062 -18.6875 17.351562 -17.773438 19.4375 -15.953125 C 21.53125 -14.140625 22.578125 -11.84375 22.578125 -9.0625 C 22.578125 -6.28125 21.554688 -3.984375 19.515625 -2.171875 C 17.472656 -0.367188 14.882812 0.53125 11.75 0.53125 C 8.488281 0.53125 5.847656 -0.363281 3.828125 -2.15625 Z M 8.6875 -12.140625 C 7.875 -11.335938 7.46875 -10.3125 7.46875 -9.0625 C 7.46875 -7.8125 7.851562 -6.789062 8.625 -6 C 9.40625 -5.207031 10.4375 -4.8125 11.71875 -4.8125 C 12.9375 -4.8125 13.941406 -5.210938 14.734375 -6.015625 C 15.523438 -6.816406 15.921875 -7.832031 15.921875 -9.0625 C 15.921875 -10.3125 15.515625 -11.335938 14.703125 -12.140625 C 13.890625 -12.941406 12.894531 -13.34375 11.71875 -13.34375 C 10.507812 -13.34375 9.5 -12.941406 8.6875 -12.140625 Z M 8.6875 -12.140625 "/></g></g></g><g fill="#000000" fill-opacity="1"><g transform="translate(87.386617, 32.615066)"><g><path d="M 3.828125 -2.15625 C 1.816406 -3.945312 0.8125 -6.242188 0.8125 -9.046875 C 0.8125 -11.859375 1.859375 -14.164062 3.953125 -15.96875 C 6.054688 -17.78125 8.65625 -18.6875 11.75 -18.6875 C 14.789062 -18.6875 17.351562 -17.773438 19.4375 -15.953125 C 21.53125 -14.140625 22.578125 -11.84375 22.578125 -9.0625 C 22.578125 -6.28125 21.554688 -3.984375 19.515625 -2.171875 C 17.472656 -0.367188 14.882812 0.53125 11.75 0.53125 C 8.488281 0.53125 5.847656 -0.363281 3.828125 -2.15625 Z M 8.6875 -12.140625 C 7.875 -11.335938 7.46875 -10.3125 7.46875 -9.0625 C 7.46875 -7.8125 7.851562 -6.789062 8.625 -6 C 9.40625 -5.207031 10.4375 -4.8125 11.71875 -4.8125 C 12.9375 -4.8125 13.941406 -5.210938 14.734375 -6.015625 C 15.523438 -6.816406 15.921875 -7.832031 15.921875 -9.0625 C 15.921875 -10.3125 15.515625 -11.335938 14.703125 -12.140625 C 13.890625 -12.941406 12.894531 -13.34375 11.71875 -13.34375 C 10.507812 -13.34375 9.5 -12.941406 8.6875 -12.140625 Z M 8.6875 -12.140625 "/></g></g></g><g fill="#000000" fill-opacity="1"><g transform="translate(110.706523, 32.615066)"><g><path d="M 2.125 0 L 2.125 -30.4375 L 8.390625 -30.4375 L 8.390625 0 Z M 2.125 0 "/></g></g></g><g fill="#000000" fill-opacity="1"><g transform="translate(121.216402, 32.615066)"><g><path d="M 20.8125 -15.890625 C 22.507812 -14.023438 23.359375 -11.75 23.359375 -9.0625 C 23.359375 -6.375 22.507812 -4.101562 20.8125 -2.25 C 19.113281 -0.394531 16.953125 0.53125 14.328125 0.53125 C 11.921875 0.53125 9.941406 -0.328125 8.390625 -2.046875 L 8.3125 -2.046875 L 8.3125 0 L 2.125 0 L 2.125 -30.4375 L 8.390625 -30.4375 L 8.390625 -16.421875 C 9.941406 -17.929688 11.921875 -18.6875 14.328125 -18.6875 C 16.953125 -18.6875 19.113281 -17.753906 20.8125 -15.890625 Z M 15.53125 -6 C 16.3125 -6.789062 16.703125 -7.8125 16.703125 -9.0625 C 16.703125 -10.3125 16.296875 -11.335938 15.484375 -12.140625 C 14.671875 -12.941406 13.660156 -13.34375 12.453125 -13.34375 C 11.273438 -13.34375 10.28125 -12.941406 9.46875 -12.140625 C 8.65625 -11.335938 8.25 -10.3125 8.25 -9.0625 C 8.25 -7.832031 8.640625 -6.816406 9.421875 -6.015625 C 10.210938 -5.210938 11.222656 -4.8125 12.453125 -4.8125 C 13.734375 -4.8125 14.757812 -5.207031 15.53125 -6 Z M 15.53125 -6 "/></g></g></g><g fill="#000000" fill-opacity="1"><g transform="translate(145.385607, 32.615066)"><g><path d="M 3.828125 -2.15625 C 1.816406 -3.945312 0.8125 -6.242188 0.8125 -9.046875 C 0.8125 -11.859375 1.859375 -14.164062 3.953125 -15.96875 C 6.054688 -17.78125 8.65625 -18.6875 11.75 -18.6875 C 14.789062 -18.6875 17.351562 -17.773438 19.4375 -15.953125 C 21.53125 -14.140625 22.578125 -11.84375 22.578125 -9.0625 C 22.578125 -6.28125 21.554688 -3.984375 19.515625 -2.171875 C 17.472656 -0.367188 14.882812 0.53125 11.75 0.53125 C 8.488281 0.53125 5.847656 -0.363281 3.828125 -2.15625 Z M 8.6875 -12.140625 C 7.875 -11.335938 7.46875 -10.3125 7.46875 -9.0625 C 7.46875 -7.8125 7.851562 -6.789062 8.625 -6 C 9.40625 -5.207031 10.4375 -4.8125 11.71875 -4.8125 C 12.9375 -4.8125 13.941406 -5.210938 14.734375 -6.015625 C 15.523438 -6.816406 15.921875 -7.832031 15.921875 -9.0625 C 15.921875 -10.3125 15.515625 -11.335938 14.703125 -12.140625 C 13.890625 -12.941406 12.894531 -13.34375 11.71875 -13.34375 C 10.507812 -13.34375 9.5 -12.941406 8.6875 -12.140625 Z M 8.6875 -12.140625 "/></g></g></g><g fill="#000000" fill-opacity="1"><g transform="translate(168.776299, 32.615066)"><g><path d="M 23.140625 0 L 15.578125 0 L 11.578125 -5.125 L 7.578125 0 L 0 0 L 7.75 -9.484375 L 1.09375 -18.15625 L 8.421875 -18.15625 L 11.578125 -13.9375 L 14.71875 -18.15625 L 22.046875 -18.15625 L 15.390625 -9.484375 Z M 23.140625 0 "/></g></g></g></g></g></svg>